<?xml version="1.0" standalone="no"?>
<!DOCTYPE svg PUBLIC "-//W3C//DTD SVG 20010904//EN"
 "http://www.w3.org/TR/2001/REC-SVG-20010904/DTD/svg10.dtd">
<svg version="1.0" xmlns="http://www.w3.org/2000/svg"
 width="512.000000pt" height="512.000000pt" viewBox="0 0 512.000000 512.000000"
 preserveAspectRatio="xMidYMid meet">
<metadata>
Created by potrace 1.11, written by Peter Selinger 2001-2013
</metadata>
<g transform="translate(0.000000,512.000000) scale(0.100000,-0.100000)"
fill="#000000" stroke="none">
<path d="M503 4669 c-99 -31 -194 -114 -245 -213 -49 -95 -48 -53 -48 -1896 0
-1853 -1 -1800 50 -1901 28 -54 111 -142 164 -173 102 -60 -38 -56 2136 -56
2174 0 2034 -4 2136 56 53 31 136 119 164 173 51 101 50 48 50 1901 0 1843 1
1801 -48 1896 -52 101 -146 182 -249 214 -64 20 -87 20 -2057 19 -1947 0
-1992 -1 -2053 -20z m896 -956 c284 -163 517 -297 519 -298 1 -1 -224 -132
-500 -290 -277 -159 -518 -298 -535 -308 l-33 -19 0 120 0 120 321 188 c217
126 317 190 308 195 -8 4 -151 88 -319 186 l-305 178 -3 119 c-2 109 -1 118
15 112 9 -4 249 -140 532 -303z m1586 -833 l0 -105 -532 -3 -533 -2 0 110 0
110 533 -2 532 -3 0 -105z"/>
</g>
</svg>
